<svg enable-background="new 0 0 512 512" viewBox="0 0 512 512" xmlns="http://www.w3.org/2000/svg"><path d="m10.688 95.156c70.27 59.511 193.572 164.209 229.812 196.854 4.865 4.406 10.083 6.646 15.5 6.646 5.406 0 10.615-2.219 15.469-6.604 36.271-32.677 159.573-137.385 229.844-196.896 4.375-3.698 5.042-10.198 1.5-14.719-8.188-10.447-20.396-16.437-33.48-16.437h-426.666c-13.083 0-25.292 5.99-33.479 16.438-3.542 4.52-2.875 11.02 1.5 14.718z"/><path d="m505.813 127.406c-3.781-1.76-8.229-1.146-11.375 1.542-77.928 66.062-177.386 150.74-208.678 178.937-17.563 15.854-41.938 15.854-59.542-.021-33.354-30.052-145.042-125-208.656-178.917-3.167-2.688-7.625-3.281-11.375-1.542-3.77 1.751-6.187 5.522-6.187 9.678v268.25c0 23.532 19.135 42.667 42.667 42.667h426.667c23.531 0 42.666-19.135 42.666-42.667v-268.25c0-4.156-2.417-7.937-6.187-9.677z"/></svg>